<mxfile host="app.diagrams.net" modified="2022-12-10T18:54:43.128Z" agent="5.0 (Windows)" etag="4KdrB0SbCsFiyWFr0zWi" version="20.6.2" type="github">
  <diagram id="6a731a19-8d31-9384-78a2-239565b7b9f0" name="Page-1">
    <mxGraphModel dx="1017" dy="949" grid="1" gridSize="10" guides="1" tooltips="1" connect="1" arrows="1" fold="1" page="1" pageScale="1" pageWidth="1169" pageHeight="827" background="none" math="0" shadow="0">
      <root>
        <mxCell id="0" />
        <mxCell id="1" parent="0" />
        <mxCell id="DiZBDu4e5y2aMHkpcZ7B-66" value="" style="edgeStyle=orthogonalEdgeStyle;rounded=0;orthogonalLoop=1;jettySize=auto;html=1;fontSize=5;strokeWidth=1;startArrow=none;startFill=0;endArrow=none;endFill=0;" edge="1" parent="1" source="DiZBDu4e5y2aMHkpcZ7B-57" target="DiZBDu4e5y2aMHkpcZ7B-61">
          <mxGeometry relative="1" as="geometry" />
        </mxCell>
        <mxCell id="DiZBDu4e5y2aMHkpcZ7B-57" value="" style="rounded=1;whiteSpace=wrap;html=1;fontSize=4;" vertex="1" parent="1">
          <mxGeometry x="480" y="280" width="80" height="80" as="geometry" />
        </mxCell>
        <mxCell id="DiZBDu4e5y2aMHkpcZ7B-58" value="&lt;font size=&quot;1&quot;&gt;0&lt;/font&gt;" style="rounded=1;whiteSpace=wrap;html=1;fontSize=4;" vertex="1" parent="1">
          <mxGeometry x="488.43" y="290" width="63.13" height="60" as="geometry" />
        </mxCell>
        <mxCell id="DiZBDu4e5y2aMHkpcZ7B-61" value="&lt;font style=&quot;font-size: 10px;&quot;&gt;10&lt;/font&gt;" style="rounded=1;whiteSpace=wrap;html=1;fontSize=4;" vertex="1" parent="1">
          <mxGeometry x="480" y="440" width="80" height="80" as="geometry" />
        </mxCell>
        <mxCell id="DiZBDu4e5y2aMHkpcZ7B-62" value="&lt;font style=&quot;font-size: 10px;&quot;&gt;20&lt;/font&gt;" style="rounded=1;whiteSpace=wrap;html=1;fontSize=4;strokeWidth=1;" vertex="1" parent="1">
          <mxGeometry x="480" y="600" width="80" height="80" as="geometry" />
        </mxCell>
        <mxCell id="DiZBDu4e5y2aMHkpcZ7B-67" value="" style="endArrow=none;html=1;rounded=0;strokeWidth=1;fontSize=5;" edge="1" parent="1">
          <mxGeometry width="50" height="50" relative="1" as="geometry">
            <mxPoint x="500" y="400" as="sourcePoint" />
            <mxPoint x="540" y="400" as="targetPoint" />
          </mxGeometry>
        </mxCell>
        <mxCell id="DiZBDu4e5y2aMHkpcZ7B-69" value="" style="edgeStyle=orthogonalEdgeStyle;rounded=0;orthogonalLoop=1;jettySize=auto;html=1;fontSize=5;strokeWidth=1;startArrow=none;startFill=0;endArrow=none;endFill=0;" edge="1" parent="1">
          <mxGeometry relative="1" as="geometry">
            <mxPoint x="519.83" y="519.9999999999999" as="sourcePoint" />
            <mxPoint x="519.83" y="600.0000000000001" as="targetPoint" />
          </mxGeometry>
        </mxCell>
        <mxCell id="DiZBDu4e5y2aMHkpcZ7B-70" value="" style="endArrow=none;html=1;rounded=0;strokeWidth=1;fontSize=5;" edge="1" parent="1">
          <mxGeometry width="50" height="50" relative="1" as="geometry">
            <mxPoint x="500" y="560.0000000000001" as="sourcePoint" />
            <mxPoint x="540" y="560.0000000000001" as="targetPoint" />
          </mxGeometry>
        </mxCell>
        <mxCell id="DiZBDu4e5y2aMHkpcZ7B-71" value="&lt;font style=&quot;font-size: 10px;&quot;&gt;20&lt;/font&gt;" style="rounded=1;whiteSpace=wrap;html=1;fontSize=4;strokeWidth=1;" vertex="1" parent="1">
          <mxGeometry x="240" y="600" width="80" height="80" as="geometry" />
        </mxCell>
        <mxCell id="DiZBDu4e5y2aMHkpcZ7B-72" value="" style="edgeStyle=orthogonalEdgeStyle;rounded=0;orthogonalLoop=1;jettySize=auto;html=1;fontSize=5;strokeWidth=1;startArrow=none;startFill=0;endArrow=none;endFill=0;" edge="1" parent="1">
          <mxGeometry relative="1" as="geometry">
            <mxPoint x="389.9999999999999" y="520" as="sourcePoint" />
            <mxPoint x="389.9999999999999" y="600" as="targetPoint" />
          </mxGeometry>
        </mxCell>
        <mxCell id="DiZBDu4e5y2aMHkpcZ7B-73" value="" style="endArrow=none;html=1;rounded=0;strokeWidth=1;fontSize=5;" edge="1" parent="1">
          <mxGeometry width="50" height="50" relative="1" as="geometry">
            <mxPoint x="370" y="560.0000000000001" as="sourcePoint" />
            <mxPoint x="410" y="560.0000000000001" as="targetPoint" />
          </mxGeometry>
        </mxCell>
        <mxCell id="DiZBDu4e5y2aMHkpcZ7B-74" value="" style="edgeStyle=orthogonalEdgeStyle;rounded=0;orthogonalLoop=1;jettySize=auto;html=1;fontSize=5;strokeWidth=1;startArrow=none;startFill=0;endArrow=none;endFill=0;" edge="1" parent="1">
          <mxGeometry relative="1" as="geometry">
            <mxPoint x="280" y="680" as="sourcePoint" />
            <mxPoint x="280" y="760" as="targetPoint" />
          </mxGeometry>
        </mxCell>
        <mxCell id="DiZBDu4e5y2aMHkpcZ7B-75" value="" style="endArrow=none;html=1;rounded=0;strokeWidth=1;fontSize=5;" edge="1" parent="1">
          <mxGeometry width="50" height="50" relative="1" as="geometry">
            <mxPoint x="260" y="720" as="sourcePoint" />
            <mxPoint x="300" y="720" as="targetPoint" />
          </mxGeometry>
        </mxCell>
      </root>
    </mxGraphModel>
  </diagram>
</mxfile>
